HIERARCHY
ROOT Hips
{
  OFFSET -33.9132 29.2015 117.021
  CHANNELS 6 Xposition Yposition Zposition Zrotation Xrotation Yrotation
  JOINT LeftUpLeg
  {
    OFFSET 8.64259 1.95398 -2.38835
    CHANNELS 3 Zrotation Xrotation Yrotation
    JOINT LeftLeg
    {
      OFFSET 43.7702 0 0
      CHANNELS 3 Zrotation Xrotation Yrotation
      JOINT LeftFoot
      {
        OFFSET 40.6238 0 0
        CHANNELS 3 Zrotation Xrotation Yrotation
        JOINT LeftToeBase
        {
          OFFSET 12.7242 0 0
          CHANNELS 3 Zrotation Xrotation Yrotation
          End Site
          {
            OFFSET 0 0 0
          }
        }
      }
    }
  }
  JOINT RightUpLeg
  {
    OFFSET -8.2249 1.95398 -2.59336
    CHANNELS 3 Zrotation Xrotation Yrotation
    JOINT RightLeg
    {
      OFFSET 43.5653 0 0
      CHANNELS 3 Zrotation Xrotation Yrotation
      JOINT RightFoot
      {
        OFFSET 40.6238 0 0
        CHANNELS 3 Zrotation Xrotation Yrotation
        JOINT RightToeBase
        {
          OFFSET 12.7242 0 0
          CHANNELS 3 Zrotation Xrotation Yrotation
          End Site
          {
            OFFSET 0 0 0
          }
        }
      }
    }
  }
  JOINT Spine
  {
    OFFSET 0.165834 0.87714 6.61349
    CHANNELS 3 Zrotation Xrotation Yrotation
    JOINT Spine1
    {
      OFFSET 7.38963 1.71661e-005 0
      CHANNELS 3 Zrotation Xrotation Yrotation
      JOINT Spine2
      {
        OFFSET 11.9445 1.14441e-005 0
        CHANNELS 3 Zrotation Xrotation Yrotation
        JOINT Spine3
        {
          OFFSET 14.7254 4.19617e-005 0
          CHANNELS 3 Zrotation Xrotation Yrotation
          JOINT Spine4
          {
            OFFSET 10.9679 0 0
            CHANNELS 3 Zrotation Xrotation Yrotation
            JOINT RightShoulder
            {
              OFFSET 2.46616 -1.6653 3.69651
              CHANNELS 3 Zrotation Xrotation Yrotation
              JOINT RightArm
              {
                OFFSET 13.0012 0 0
                CHANNELS 3 Zrotation Xrotation Yrotation
                JOINT RightForeArm
                {
                  OFFSET 28.7848 1.62311e-005 0
                  CHANNELS 3 Zrotation Xrotation Yrotation
                  JOINT RightHand
                  {
                    OFFSET 26.5688 1.62095e-005 0
                    CHANNELS 3 Zrotation Xrotation Yrotation
                    End Site
                    {
                      OFFSET 0 0 0
                    }
                  }
                }
              }
            }
            JOINT LeftShoulder
            {
              OFFSET 2.38034 -1.29275 -3.7523
              CHANNELS 3 Zrotation Xrotation Yrotation
              JOINT LeftArm
              {
                OFFSET 16.3182 6.07031e-005 0
                CHANNELS 3 Zrotation Xrotation Yrotation
                JOINT LeftForeArm
                {
                  OFFSET 27.0901 0 0
                  CHANNELS 3 Zrotation Xrotation Yrotation
                  JOINT LeftHand
                  {
                    OFFSET 24.5451 1.51738e-005 0
                    CHANNELS 3 Zrotation Xrotation Yrotation
                    End Site
                    {
                      OFFSET 0 0 0
                    }
                  }
                }
              }
            }
            JOINT Neck
            {
              OFFSET 5.0226 -0.0266342 0
              CHANNELS 3 Zrotation Xrotation Yrotation
              JOINT Head
              {
                OFFSET 6.69364 2.86102e-005 0
                CHANNELS 3 Zrotation Xrotation Yrotation
                End Site
                {
                  OFFSET 0 0 0
                }
              }
            }
          }
        }
      }
    }
  }
}
MOTION
Frames:	15
Frame Time:	0.0416667
39.5057 95.5339 -160.807 -27.1607 -87.5251 -28.438 -178.629 33.6637 93.6251 -31.4813 15.9975 0.993374 66.1636 3.76092 -1.58994 21.0957 -5.87683 4.42833 175.384 -11.1787 93.8165 -51.464 -22.1461 -3.49779 63.0092 -2.37799 -1.96207 21.5768 0.538066 8.84845 1.39269 7.58213 -89.5675 11.7074 2.97307 0.550998 0.0398291 2.99444 0.419495 -22.5177 2.66995 1.41964 -2.50505 2.66995 1.41963 92.4583 -21.6682 -104.803 38.2098 -11.6238 33.878 -34.2705 -1.24332 -95.9878 -33.8647 12.0263 -43.8602 -87.0058 -41.62 81.7118 -20.1056 27.3682 24.1877 46.4355 26.3578 -60.3081 39.0542 -19.592 -48.2028 21.1907 -8.83919 -11.1671 -10.7904 -5.19734 3.7038 
40.5301 94.1346 -149.568 -82.2896 -86.725 -85.2814 -176.763 30.5179 91.4538 -42.958 11.1355 0.869733 68.9614 5.94607 0.829424 27.4412 0.0477355 -1.5303 171.893 -0.395101 88.8939 -69.0361 -8.86898 -2.72098 66.9613 -5.1684 -2.81399 21.2426 -0.0137591 11.062 0.760842 7.58053 -89.4628 11.7061 1.76543 0.885677 0.0360668 1.80269 0.80709 -22.5034 1.41764 1.37535 -2.49077 1.41764 1.37533 92.6677 -25.2428 -102.999 44.6154 -7.49936 33.5112 -49.0591 -11.6698 -81.5857 -28.8155 8.54306 -38.3148 -88.1264 -47.2112 81.0078 -17.9975 19.7293 9.75612 39.098 30.6052 -56.4998 37.0476 -19.1417 -49.6789 17.1417 -4.97101 -13.2119 -7.31213 -1.22254 5.36107 
40.2787 93.7646 -139.372 -114.496 -84.4159 -121.345 -173.212 20.258 88.6008 -44.1834 10.082 -1.04831 78.715 12.6778 -0.620747 26.7035 -1.67115 1.55306 171.2 12.3645 87.9008 -80.063 1.57071 -3.14798 72.663 -10.0114 -6.30096 18.1517 2.46048 7.08538 -0.0399592 7.93542 -89.1458 10.9975 0.316233 1.6681 -0.67444 0.38933 1.65256 -23.2012 -0.199645 1.68603 -3.18859 -0.199636 1.68603 93.4143 -25.6262 -101.253 44.739 0.582856 36.3424 -54.7339 -23.9641 -74.6225 -25.1736 7.64176 -39.3155 -89.0363 -50.8349 80.3277 -11.0446 14.9257 -12.7521 38.8935 34.0446 -56.9802 38.6502 -18.0578 -45.2938 18.7416 -0.882726 -10.0684 -6.83627 2.09202 2.7732 
40.001 94.3706 -128.744 -107.909 -80.7939 -113.044 -171.545 10.5922 91.651 -41.9875 9.93312 -1.28658 80.3512 14.7788 2.16607 34.7544 2.04703 1.99403 173.554 23.3137 91.5464 -78.8846 1.17863 -2.5732 74.2537 -11.1546 -5.90886 17.3668 2.42375 8.09322 -0.532494 7.82306 -89.3523 11.2331 -0.758221 1.36728 -0.438381 -0.697307 1.39931 -22.9714 -1.13408 1.07624 -2.95878 -1.13408 1.07623 94.848 -23.634 -98.7157 45.6201 4.56085 41.0563 -43.1709 -26.8927 -64.1351 -23.4049 7.27915 -40.2829 -88.0014 -45.5457 80.8843 -9.3983 9.09811 -25.7736 37.9055 34.4867 -55.6987 40.9134 -19.2959 -45.52 16.511 3.96594 -6.45845 -6.88997 5.64322 1.24886 
38.9424 96.7417 -117.176 -107.616 -76.1 -112.519 -170.139 -0.656647 90.3193 -35.6535 10.3055 -2.20428 68.4876 6.19916 3.0004 51.9733 9.50797 0.978043 175.219 26.6891 94.5543 -63.9139 1.32399 -1.23443 73.8661 -10.0775 -4.72698 17.1987 2.504 8.04876 -0.997503 7.73816 -89.5199 11.4061 -1.76068 1.13326 -0.264275 -1.70911 1.20965 -22.8077 -2.01985 0.551559 -2.795 -2.01985 0.551566 95.4549 -21.0767 -98.0776 40.7241 9.38273 47.4543 -46.4282 -29.9537 -64.502 -22.8355 7.87658 -43.8149 -85.7429 -38.9548 83.3362 -8.64567 4.89734 -24.9856 38.8606 29.3378 -58.1909 39.8447 -20.3829 -49.1494 14.4692 9.70677 0.342059 -8.00063 9.42599 -1.5449 
37.1007 98.9594 -105.117 -107.852 -72.4946 -112.781 -170.758 -6.65831 92.323 -34.4123 15.307 -1.35662 52.7448 -5.82684 -2.07278 50.4982 10.1443 -5.49872 176.705 23.0853 96.8625 -40.1466 -0.561809 0.86855 67.8228 -6.01881 -2.75603 20.018 1.41506 7.99711 -1.17299 7.65086 -89.6104 11.5827 -2.15089 0.998488 -0.086905 -2.10487 1.0922 -22.6359 -2.35151 0.305566 -2.6232 -2.3515 0.305569 95.0158 -18.9679 -99.8051 37.354 12.2157 54.4907 -45.6559 -29.6765 -64.0616 -21.3893 7.76964 -45.8852 -84.1585 -31.8453 84.9126 -9.0892 1.95694 -21.7386 43.7986 29.6287 -60.7301 38.9279 -21.3903 -52.3368 12.4808 13.2919 4.79026 -9.17704 12.0302 -3.94576 
35.2627 98.9556 -93.5083 -107.677 -71.5303 -113.441 -171.614 -6.1039 92.5152 -44.0595 27.1985 0.46 52.5281 -5.7793 -2.35395 30.3816 0.632011 0.43997 178.258 18.3456 97.8602 -19.4801 -8.94983 1.39842 60.1345 -1.03133 0.301611 21.56 0.787131 8.09046 -1.10429 7.46588 -89.5694 11.9528 -1.99266 1.0735 0.282873 -1.9435 1.16017 -22.2638 -2.22313 0.424751 -2.25113 -2.22313 0.424754 94.9583 -16.3723 -100.881 38.2949 12.3789 62.403 -44.0356 -26.2788 -65.3916 -19.0298 7.10975 -47.0981 -83.0934 -29.2506 86.5293 -4.96091 6.51899 -21.4841 45.1531 27.7956 -61.4327 38.9234 -21.7473 -53.1069 7.85252 13.7187 6.26217 -6.5896 12.339 -4.9655 
33.2319 97.2697 -82.7725 -114.624 -72.3387 -122.683 -171.49 -2.11782 93.7438 -56.0807 22.693 1.5944 57.1404 -2.76111 -1.73128 37.182 3.81129 -0.332927 179.359 16.8395 96.8334 -18.2331 -17.9862 0.0027851 57.54 1.12207 0.00295256 19.7503 1.58718 7.73797 -1.00079 7.44411 -89.2237 11.9989 -1.62328 1.72732 0.327755 -1.54569 1.79707 -22.2108 -2.06734 1.15959 -2.19818 -2.06733 1.15959 94.7954 -16.3426 -101.316 41.8049 11.3684 65.0355 -43.2663 -25.7008 -65.2515 -20.0799 7.72806 -48.1997 -83.9976 -31.5305 85.1732 -3.5893 8.95875 -16.4546 45.873 24.2252 -63.2324 40.6871 -21.3888 -50.2267 5.23465 12.1443 4.27486 -5.11348 11.2632 -4.87327 
31.3203 94.396 -72.4394 -126.6 -72.1653 -135.699 -171.261 4.03157 96.0023 -67.1966 11.1651 2.76206 62.4778 1.27251 1.77904 34.2324 3.61244 -3.39561 177.59 18.0965 97.1007 -35.9203 -22.8435 0.00322719 64.9794 -3.40267 -5.32103 3.761 7.40265 9.40634 -0.76218 7.6564 -89.0532 11.5647 -1.07303 1.99834 -0.107445 -0.984055 2.04359 -22.6375 -1.62393 1.5836 -2.62488 -1.62393 1.58359 94.0463 -18.9134 -102.171 42.8212 10.2337 64.7937 -46.5218 -25.1632 -68.2506 -24.552 9.36806 -47.4813 -85.2732 -36.991 83.8058 -3.94257 9.85899 -7.63503 48.2081 21.6752 -65.5235 39.9131 -21.4792 -51.3366 4.20678 9.97475 3.5824 -3.3049 9.21731 -5.84357 
29.3487 91.7104 -64.2391 -126.449 -72.8183 -131.992 -173.785 17.6137 100.561 -74.1872 4.24771 4.66177 70.1509 7.38916 4.98118 26.1723 0.974759 -4.93178 177.432 19.6479 102.902 -48.7734 -19.498 0.630948 72.0252 -10.3159 -9.567 2.35829 7.98749 9.34841 -0.29454 7.88173 -89.6208 11.1113 -0.410202 0.794525 -0.55987 -0.374838 0.811804 -23.0942 -0.630024 0.634517 -3.08155 -0.630028 0.63452 95.4055 -21.5997 -98.041 43.8767 5.58475 54.4281 -48.7381 -20.7346 -73.4168 -24.6548 8.95139 -45.5796 -84.7124 -43.7845 85.8427 -7.99883 9.62028 -1.28759 44.5982 22.8929 -63.2601 38.8036 -19.927 -49.3588 10.0164 8.30911 3.19177 -4.74168 7.49627 -5.33088 
27.0577 90.924 -55.3876 -124.16 -71.3247 -129.785 -178.062 24.6935 99.3483 -70.3108 2.16243 5.5676 75.2085 10.4151 4.37208 21.5528 -1.40816 -3.93634 178.266 13.9254 103.458 -52.4926 -20.1502 -0.184005 77.6955 -15.6005 -10.169 7.2212 6.15231 8.95994 0.0606816 8.05041 -89.7728 10.7725 0.225638 0.430229 -0.898506 0.244367 0.419881 -23.4334 0.0858927 0.47816 -3.42073 0.0859073 0.478165 95.4586 -22.572 -97.6365 41.8983 0.474676 41.7927 -55.4019 -15.9471 -81.2839 -28.7113 9.16556 -40.7122 -85.4827 -50.4483 85.573 -13.6519 4.22234 15.4418 47.9839 24.2966 -65.8175 35.7307 -19.1513 -51.3301 12.2143 6.69166 3.79805 -5.03642 5.69926 -5.35641 
24.1595 91.726 -45.9997 -121.738 -69.0101 -129.627 179.314 25.0682 95.544 -56.8599 7.46637 5.75625 73.9469 9.95612 3.93653 21.889 -1.20843 -4.14837 177.524 4.97022 100.462 -51.406 -21.2736 -0.928347 80.122 -16.8365 -8.90943 9.48256 4.47867 10.6499 0.879302 8.04021 -89.4199 10.7872 2.01888 0.970234 -0.882618 2.05962 0.880408 -23.423 1.63396 1.53219 -3.41032 1.63397 1.5322 94.5185 -21.0316 -100.289 42.7739 -7.36814 42.4514 -44.8545 -1.57716 -86.3406 -31.4216 9.96126 -39.9637 -84.1791 -49.7085 87.4527 -18.2577 6.36837 26.6275 47.255 21.8919 -66.5194 37.0359 -20.2966 -52.3431 9.56448 2.97684 3.62806 -3.96781 2.19222 -7.78219 
20.6898 92.3376 -36.4426 -112.194 -64.7152 -122.807 179.385 21.3073 93.4054 -37.3128 16.3854 4.49574 71.5989 8.6158 -0.153828 25.7046 -3.32904 4.29176 177.329 -0.00902045 96.7414 -53.0442 -24.2783 -2.97527 77.1894 -13.9406 -8.82759 11.4785 2.78304 12.9136 2.33316 8.03248 -88.9302 10.7785 5.1395 1.65041 -0.883116 5.20713 1.42207 -23.4733 4.40575 3.12087 -3.46062 4.40576 3.12087 94.0527 -16.8422 -103.012 42.3112 -17.4692 51.6628 -38.1309 4.27618 -102.068 -42.1258 12.575 -37.7958 -83.0448 -46.5302 88.8481 -19.4666 12.2587 31.8754 46.7346 17.9493 -67.4993 38.6853 -21.6654 -53.2765 10.5467 -1.11956 3.35455 -5.29375 -1.61448 -11.6554 
16.9882 91.7635 -27.1625 -102.007 -59.1975 -114.408 -179.309 19.2132 93.5164 -23.9271 25.4665 2.75199 64.4982 3.94918 -1.19674 30.8381 -0.26624 3.00559 176.493 0.296806 93.3748 -59.2031 -26.0395 -4.11635 71.4734 -8.97313 -7.70243 12.2312 2.56088 12.7972 3.61488 7.95117 -88.6699 10.9205 7.81198 1.90843 -0.727779 7.88836 1.56073 -23.4064 6.87612 4.17726 -3.39373 6.87612 4.17725 93.7992 -12.5447 -105.667 39.5077 -25.2061 65.1113 -33.6389 13.5226 -115.033 -53.2323 16.1614 -37.1871 -82.2163 -47.8004 90.2638 -10.9272 10.8463 34.325 51.1856 15.2012 -71.4694 38.7509 -22.886 -55.7431 13.1849 -3.80129 3.59332 -6.93864 -4.14053 -13.1424 
13.5874 89.3566 -18.7567 -96.2783 -56.0122 -109.11 179.602 20.9312 94.6834 -28.9101 28.7968 4.30472 66.3093 4.35538 -3.12147 29.4943 -4.56062 10.761 174.525 5.3406 91.8694 -70.1372 -16.3016 -2.86869 67.3517 -5.32255 -5.01025 17.0084 2.30757 8.8087 3.92101 7.88125 -88.6815 11.0633 8.41636 1.81179 -0.580941 8.48788 1.43703 -23.2889 7.48112 4.2698 -3.27625 7.48113 4.2698 93.7724 -12.846 -105.609 41.3003 -32.188 70.4725 -24.8577 11.2524 -119.833 -56.9376 20.1896 -42.0155 -82.4521 -53.8003 90.407 -4.18574 7.41673 29.5547 53.2814 17.1808 -72.1047 40.4858 -23.8337 -55.4841 18.2703 -3.66285 3.70326 -8.44567 -4.02348 -12.5151 
